<svg width="90" height="90" viewBox="0 0 90 90" fill="none" xmlns="http://www.w3.org/2000/svg">
<path fill-rule="evenodd" clip-rule="evenodd" d="M79.8871 69.3151L48.8764 16.1624C47.1445 13.194 42.8555 13.194 41.1236 16.1624L10.1129 69.3151C8.36734 72.307 10.5254 76.0645 13.9892 76.0645H76.0108C79.4746 76.0645 81.6327 72.307 79.8871 69.3151ZM52.7527 13.9008C49.289 7.96405 40.711 7.96406 37.2473 13.9008L6.23652 67.0536C2.74546 73.0373 7.06157 80.5524 13.9892 80.5524H76.0108C82.9384 80.5524 87.2545 73.0373 83.7635 67.0536L52.7527 13.9008Z" fill="#FFC800"/>
<path fill-rule="evenodd" clip-rule="evenodd" d="M44.9999 31.875C46.4727 31.875 47.6666 32.8301 47.6666 34.0083V58.0083C47.6666 59.1865 46.4727 60.1417 44.9999 60.1417C43.5272 60.1417 42.3333 59.1865 42.3333 58.0083V34.0083C42.3333 32.8301 43.5272 31.875 44.9999 31.875Z" fill="#A58200"/>
<circle cx="45.0002" cy="66.0085" r="2.66667" fill="#A58200"/>
</svg>
