<svg width="12" height="14" viewBox="0 0 12 14" fill="none" xmlns="http://www.w3.org/2000/svg">
<path d="M10.438 3.25L8.212 1.262C8.00667 1.08467 7.76867 0.944666 7.498 0.841999C7.22733 0.739333 6.96133 0.688 6.7 0.688H3.088C2.668 0.688 2.276 0.795333 1.912 1.01C1.55733 1.21533 1.27267 1.49533 1.058 1.85C0.852667 2.20467 0.75 2.592 0.75 3.012V11.188C0.75 11.608 0.852667 11.9953 1.058 12.35C1.27267 12.7047 1.55733 12.9847 1.912 13.19C2.276 13.4047 2.668 13.512 3.088 13.512H8.912C9.332 13.512 9.71933 13.4047 10.074 13.19C10.438 12.9847 10.7227 12.7047 10.928 12.35C11.1427 11.9953 11.25 11.608 11.25 11.188V5C11.25 4.64533 11.18 4.31867 11.04 4.02C10.9 3.712 10.6993 3.45533 10.438 3.25ZM9.682 4.118C9.88733 4.286 10.0227 4.50067 10.088 4.762H8.338C8.01133 4.762 7.73133 4.65 7.498 4.426C7.274 4.19267 7.162 3.91733 7.162 3.6V1.962C7.20867 1.98067 7.26 2.01333 7.316 2.06C7.372 2.09733 7.41867 2.12533 7.456 2.144L9.682 4.118ZM8.912 12.35H3.088C2.77067 12.35 2.49533 12.2333 2.262 12C2.02867 11.776 1.912 11.5053 1.912 11.188V3.012C1.912 2.69467 2.024 2.424 2.248 2.2C2.48133 1.96667 2.76133 1.85 3.088 1.85H6V3.6C6 4.02 6.10267 4.412 6.308 4.776C6.52267 5.13067 6.80733 5.41533 7.162 5.63C7.526 5.83533 7.918 5.938 8.338 5.938H10.088V11.188C10.088 11.5053 9.97133 11.776 9.738 12C9.50467 12.2333 9.22933 12.35 8.912 12.35Z" fill="#0E7F61"/>
</svg>
