  <svg width="20" height="20" viewBox="0 0 20 20" fill="none" xmlns="http://www.w3.org/2000/svg">
  <path d="M12.7695 4.59027C15.5998 5.96615 16.8185 9.34689 15.4426 12.2166L19.0199 13.9463C21.3392 9.11102 19.295 3.33234 14.4991 1.013C10.8432 -0.755986 6.59771 -0.00908071 3.76733 2.58543L6.44039 5.53374C8.13076 4.00062 10.6467 3.56819 12.7695 4.59027Z" fill="#C8DD52"/>
  <path d="M7.85542 14.8897C5.02504 13.5138 3.80638 10.1331 5.18226 7.26343L1.60504 5.53375C-0.714302 10.369 1.32986 16.1477 6.12578 18.467C9.78168 20.236 14.0272 19.4891 16.8576 16.8946L14.1845 13.9463C12.4941 15.4794 10.0175 15.9118 7.85542 14.8897Z" fill="white"/>
  </svg>
