<svg width="48" height="34" viewBox="0 0 48 34" fill="none" xmlns="http://www.w3.org/2000/svg">
<g filter="url(#filter0_d)">
<rect x="4" y="4" width="40" height="26" rx="6" fill="url(#paint0_linear)"/>
<path d="M8 4V14.4948C8 14.4948 8 18.2187 11.5556 18.2187C15.1111 18.2187 15 18.2187 15 18.2187" stroke="#F8F8F8" stroke-width="0.5"/>
<path d="M40 4V14.4948C40 14.4948 40 18.2187 36.4444 18.2187C32.8889 18.2187 33 18.2187 33 18.2187" stroke="#F8F8F8" stroke-width="0.5"/>
<path fill-rule="evenodd" clip-rule="evenodd" d="M29.788 12.2972H18.8829C18.2007 12.2972 17.6477 12.9056 17.6477 13.6561V21.947C17.6477 22.6976 18.2007 23.306 18.8829 23.306H29.788C30.4701 23.306 31.0231 22.6976 31.0231 21.947V13.6561C31.0231 12.9056 30.4701 12.2972 29.788 12.2972ZM18.8829 11.8467C17.9746 11.8467 17.2383 12.6568 17.2383 13.6561V21.947C17.2383 22.9464 17.9746 23.7565 18.8829 23.7565H29.788C30.6962 23.7565 31.4325 22.9464 31.4325 21.947V13.6561C31.4325 12.6568 30.6962 11.8467 29.788 11.8467H18.8829Z" fill="white"/>
<path fill-rule="evenodd" clip-rule="evenodd" d="M26.0024 9.18976H22.6675C21.9854 9.18976 21.4324 9.79819 21.4324 10.5487V11.9135H27.2375V10.5487C27.2375 9.79819 26.6845 9.18976 26.0024 9.18976ZM22.6675 8.73926C21.7593 8.73926 21.0229 9.54938 21.0229 10.5487V12.364H27.6469V10.5487C27.6469 9.54938 26.9106 8.73926 26.0024 8.73926H22.6675Z" fill="white"/>
<path d="M27.2981 16.4111H25.5516V14.4895C25.5516 14.2997 25.4115 14.1455 25.239 14.1455H23.4314C23.2589 14.1455 23.1187 14.2997 23.1187 14.4895V16.4111H21.3722C21.1997 16.4111 21.0596 16.5653 21.0596 16.7551V18.7479C21.0596 18.9377 21.1997 19.0919 21.3722 19.0919H23.1187V21.0135C23.1187 21.2033 23.2589 21.3575 23.4314 21.3575H25.2426C25.4151 21.3575 25.5552 21.2033 25.5552 21.0135V19.0879H27.3017C27.4742 19.0879 27.6144 18.9337 27.6144 18.7439V16.7551C27.6108 16.5653 27.4706 16.4111 27.2981 16.4111ZM27.2514 18.6925H25.1922V20.9581H23.4781V18.6925H21.4189V16.8065H23.4781V14.5409H25.1922V16.8065H27.2514V18.6925Z" fill="white"/>
<path fill-rule="evenodd" clip-rule="evenodd" d="M23.0504 14.4894C23.0504 14.2581 23.2211 14.0703 23.4313 14.0703H25.2388C25.449 14.0703 25.6197 14.2581 25.6197 14.4894V16.3359H27.298C27.5084 16.3359 27.6781 16.5237 27.6825 16.7534L27.6825 16.755L27.6825 18.7438C27.6825 18.9751 27.5118 19.1629 27.3016 19.1629H25.6233V21.0134C25.6233 21.2446 25.4526 21.4325 25.2424 21.4325H23.4313C23.2211 21.4325 23.0504 21.2446 23.0504 21.0134V19.1669H21.3721C21.1619 19.1669 20.9912 18.979 20.9912 18.7478V16.755C20.9912 16.5237 21.1619 16.3359 21.3721 16.3359H23.0504V14.4894ZM23.4313 14.2205C23.2964 14.2205 23.1868 14.3411 23.1868 14.4894V16.4861H21.3721C21.2373 16.4861 21.1277 16.6067 21.1277 16.755V18.7478C21.1277 18.8961 21.2373 19.0167 21.3721 19.0167H23.1868V21.0134C23.1868 21.1617 23.2964 21.2823 23.4313 21.2823H25.2424C25.3772 21.2823 25.4868 21.1617 25.4868 21.0134V19.0127H27.3016C27.4364 19.0127 27.546 18.8921 27.546 18.7438V16.7558C27.5428 16.6063 27.4323 16.4861 27.298 16.4861H25.4833V14.4894C25.4833 14.3411 25.3737 14.2205 25.2388 14.2205H23.4313ZM23.4097 14.4657H25.2604V16.7313H27.3195V18.7675H25.2604V21.0331H23.4097V18.7675H21.3506V16.7313H23.4097V14.4657ZM23.5462 14.6159V16.8815H21.4871V18.6173H23.5462V20.8829H25.1239V18.6173H27.183V16.8815H25.1239V14.6159H23.5462Z" fill="white"/>
</g>
<defs>
<filter id="filter0_d" x="0" y="0" width="48" height="34" filterUnits="userSpaceOnUse" color-interpolation-filters="sRGB">
<feFlood flood-opacity="0" result="BackgroundImageFix"/>
<feColorMatrix in="SourceAlpha" type="matrix" values="0 0 0 0 0 0 0 0 0 0 0 0 0 0 0 0 0 0 127 0"/>
<feOffset/>
<feGaussianBlur stdDeviation="2"/>
<feColorMatrix type="matrix" values="0 0 0 0 0 0 0 0 0 0 0 0 0 0 0 0 0 0 0.15 0"/>
<feBlend mode="normal" in2="BackgroundImageFix" result="effect1_dropShadow"/>
<feBlend mode="normal" in="SourceGraphic" in2="effect1_dropShadow" result="shape"/>
</filter>
<linearGradient id="paint0_linear" x1="39.0519" y1="27.0072" x2="39.0519" y2="7.4398" gradientUnits="userSpaceOnUse">
<stop stop-color="#0A6F9E"/>
<stop offset="1" stop-color="#0083C1"/>
</linearGradient>
</defs>
</svg>
